<html>
<head>
<meta charset="UTF-8">
<meta name="viewport" content="width=device-width, initial-scale=1.0"/>

<style>
.comment
{
    padding-left: 20px;
    margin-top: 4px;
    margin-right: 4px;
    margin-bottom: 4px;
    border: 2px #000 solid;
}
.submission
{
    border: 4px #00f solid;
    padding-left: 20px;
}
.hidden
{
    display: none;
}
</style>
</head>
<body><div class="submission" id="t3_6eb7dj">
    <p class="userinfo">
        <a href="https://www.reddit.com/u/V2atX">V2atX</a>
        <span class="score"> | 21 points</span>
        <span class="timestamp"> | May 30 2017 23:51:49</span>
    </p>
    <strong>[TV] iZombie S01 [1080p] BluRay FLAC [x264] [17.85GB]</strong>
    <p><p><a href="http://www.imdb.com/title/tt3501584/">iZombie</a></p>
<p>Video: AVC H.264 @ 2899 - 3906 kb/s (3419 kb/s average) (CRF20, Film Preset, Ultralight Denoise)<br>
Audio: FLAC 5.1 @ 1120 - 1352 kb/s (1229 kb/s average) (DTS-HD MA source was 24-bit, I reduced it to 16-bit for a better filesize)<br>
Subs: UTF-8, non HI</p>
<p>Link protected by captcha:  http://links.snahp.it/349iZombieS01</p>
<p>Complete MediaInfo of a relatively average sized episode:</p>
<pre><code>General
Unique ID                                : 235216690894105312592410366158566312413 (0xB0F5163B3AA233068DCF2A1CF86FC9DD)
Complete name                            : iZombie - S01E03 - The Exterminator.mkv
Format                                   : Matroska
Format version                           : Version 4 / Version 2
File size                                : 1.37 GiB
Duration                                 : 42 min 30 s
Overall bit rate mode                    : Variable
Overall bit rate                         : 4 623 kb/s
Encoded date                             : UTC 2017-05-29 18:13:40
Writing application                      : mkvmerge v10.0.0 ('To Drown In You') 64bit
Writing library                          : libebml v1.3.4 + libmatroska v1.4.5

Video
ID                                       : 1
Format                                   : AVC
Format/Info                              : Advanced Video Codec
Format profile                           : High@L4.1
Format settings, CABAC                   : Yes
Format settings, ReFrames                : 4 frames
Codec ID                                 : V_MPEG4/ISO/AVC
Duration                                 : 42 min 30 s
Bit rate                                 : 3 377 kb/s
Width                                    : 1 920 pixels
Height                                   : 1 080 pixels
Display aspect ratio                     : 16:9
Frame rate mode                          : Constant
Frame rate                               : 23.976 (24000/1001) FPS
Color space                              : YUV
Chroma subsampling                       : 4:2:0
Bit depth                                : 8 bits
Scan type                                : Progressive
Bits/(Pixel*Frame)                       : 0.068
Stream size                              : 1.00 GiB (73%)
Writing library                          : x264 core 142 r2479 dd79a61
Encoding settings                        : cabac=1 / ref=4 / deblock=1:-1:-1 / analyse=0x3:0x133 / me=umh / subme=10 / psy=1 / psy_rd=1.00:0.15 / mixed_ref=1 / me_range=24 / chroma_me=1 / trellis=2 / 8x8dct=1 / cqm=0 / deadzone=21,11 / fast_pskip=1 / chroma_qp_offset=-3 / threads=12 / lookahead_threads=2 / sliced_threads=0 / nr=0 / decimate=1 / interlaced=0 / bluray_compat=0 / constrained_intra=0 / bframes=8 / b_pyramid=2 / b_adapt=2 / b_bias=0 / direct=3 / weightb=1 / open_gop=0 / weightp=2 / keyint=240 / keyint_min=24 / scenecut=40 / intra_refresh=0 / rc_lookahead=60 / rc=crf / mbtree=1 / crf=20.0 / qcomp=0.60 / qpmin=0 / qpmax=69 / qpstep=4 / vbv_maxrate=62500 / vbv_bufsize=78125 / crf_max=0.0 / nal_hrd=none / filler=0 / ip_ratio=1.40 / aq=1:1.00
Default                                  : Yes
Forced                                   : No
Color range                              : Limited
Color primaries                          : BT.709
Transfer characteristics                 : BT.709
Matrix coefficients                      : BT.709

Audio
ID                                       : 2
Format                                   : FLAC
Format/Info                              : Free Lossless Audio Codec
Codec ID                                 : A_FLAC
Duration                                 : 42 min 30 s
Bit rate mode                            : Variable
Bit rate                                 : 1 243 kb/s
Channel(s)                               : 6 channels
Channel positions                        : Front: L C R, Side: L R, LFE
Sampling rate                            : 48.0 kHz
Frame rate                               : 11.719 FPS (4096 spf)
Bit depth                                : 16 bits
Delay relative to video                  : -83 ms
Stream size                              : 378 MiB (27%)
Writing library                          : libFLAC 1.2.1 (UTC 2007-09-17)
Language                                 : English
Default                                  : Yes
Forced                                   : No

Text
ID                                       : 3
Format                                   : UTF-8
Codec ID                                 : S_TEXT/UTF8
Codec ID/Info                            : UTF-8 Plain Text
Duration                                 : 41 min 50 s
Bit rate                                 : 98 b/s
Count of elements                        : 710
Stream size                              : 30.2 KiB (0%)
Language                                 : English
Default                                  : Yes
Forced                                   : No

Menu
00:00:00.000                             : :Chapter 1
00:02:39.576                             : :Chapter 2
00:08:52.281                             : :Chapter 3
00:14:38.961                             : :Chapter 4
00:22:03.739                             : :Chapter 5
00:27:43.745                             : :Chapter 6
00:35:43.558                             : :Chapter 7
00:42:01.936                             : :Chapter 8
</code></pre></p>
    <p class="toolbar">
        <a href="https://www.reddit.com/r/megalinks/comments/6eb7dj">permalink</a>
    </p>
</div>
<div class="comment" id="t1_di905xk">
    <p class="userinfo">
        <a
        class="toggle_hide_button"
        href="javascript:void(0)"
        onclick="toggle_collapse(this.parentElement.parentElement)">[-]
        </a>
        <a href="https://www.reddit.com/u/n0197exe">n0197exe</a>
        <span class="score"> | 3 points</span>
        <span class="timestamp"> | May 30 2017 23:57:52</span>
    </p>
    <div class="collapsible">
        <p>This no matter but the imdb link is from Legends of Tomorrow, Thanks for the upload.</p>
        <p class="toolbar">
            <a href="https://www.reddit.com/r/megalinks/comments/6eb7dj/_/di905xk">permalink</a>
        </p>
        <div class="comment" id="t1_di9090z">
    <p class="userinfo">
        <a
        class="toggle_hide_button"
        href="javascript:void(0)"
        onclick="toggle_collapse(this.parentElement.parentElement)">[-]
        </a>
        <a href="https://www.reddit.com/u/V2atX">V2atX</a>
        <span class="score"> | 3 points</span>
        <span class="timestamp"> | May 30 2017 23:59:45</span>
    </p>
    <div class="collapsible">
        <p>I knew I forgot something. Thanks for the heads up!</p>
        <p class="toolbar">
            <a href="https://www.reddit.com/r/megalinks/comments/6eb7dj/_/di9090z">permalink</a>
        </p>
        
    </div>
</div>
    </div>
</div>

<div class="comment" id="t1_diaicpp">
    <p class="userinfo">
        <a
        class="toggle_hide_button"
        href="javascript:void(0)"
        onclick="toggle_collapse(this.parentElement.parentElement)">[-]
        </a>
        <a href="https://www.reddit.com/u/carlthescorp">carlthescorp</a>
        <span class="score"> | 2 points</span>
        <span class="timestamp"> | May 31 2017 22:10:52</span>
    </p>
    <div class="collapsible">
        <p>I've been looking for this.  Thanks a bunch</p>
        <p class="toolbar">
            <a href="https://www.reddit.com/r/megalinks/comments/6eb7dj/_/diaicpp">permalink</a>
        </p>
        
    </div>
</div>
</body>

<script>
function toggle_collapse(comment_div)
{
    var button = comment_div.getElementsByClassName("toggle_hide_button")[0];
    var collapsible = comment_div.getElementsByClassName("collapsible")[0];
    if (collapsible.classList.contains("hidden"))
    {
        collapsible.classList.remove("hidden");
        button.innerText = "[-]";
    }
    else
    {
        collapsible.classList.add("hidden");
        button.innerText = "[+]";
    }
}
</script>
</html>
